<svg width="121" height="120" fill="none" xmlns="http://www.w3.org/2000/svg"><g opacity=".8"><path d="M104.467 29.531h-10.5a4.975 4.975 0 0 0-4.969 4.969v12.107a4.962 4.962 0 0 0-4.031-2.076h-10.5a4.975 4.975 0 0 0-4.969 4.969v12.107a4.962 4.962 0 0 0-3.638-2.056l-2.78-14.825a4.988 4.988 0 0 0-3.642-3.895l-6.87-1.773a4.03 4.03 0 0 1-2.598-2.1L41.886 20.79a.468.468 0 1 0-.839.418l8.084 16.168a4.968 4.968 0 0 0 3.203 2.589l6.87 1.773a4.048 4.048 0 0 1 2.954 3.16l2.744 14.632h-.339a7.968 7.968 0 0 1-7.741-6.044l-1.291-5.164a1.215 1.215 0 0 0-.887-.887l-9.7-2.425a1.97 1.97 0 0 0-2.446 1.91v27.61h-.281a6.288 6.288 0 0 1-6.282-6.281V44.625a.469.469 0 1 0-.937 0V56.25a3.282 3.282 0 0 1-6.562 0V44.625a.469.469 0 1 0-.938 0v10.49a4.417 4.417 0 0 1-8.091 2.45L15 50.955a.281.281 0 0 1-.046-.196c.2-1.284 1.963-2.29 4.013-2.29.346 0 .69.03 1.031.09V51c0 1.292.883 2.344 1.969 2.344 1.085 0 1.969-1.052 1.969-2.344 0-1.454-1.22-2.672-3-3.195V45c0-2.823-1.268-5.01-2.61-7.325-1.59-2.74-3.39-5.846-3.39-10.675 0-3.547 1.407-5.72 1.42-5.74a.469.469 0 1 0-.78-.52c-.064.097-1.578 2.412-1.578 6.26 0 5.08 1.868 8.303 3.516 11.145 1.333 2.299 2.484 4.284 2.484 6.855v2.604a7.336 7.336 0 0 0-1.031-.073c-2.542 0-4.665 1.326-4.94 3.084a1.21 1.21 0 0 0 .194.861l4.406 6.609a5.35 5.35 0 0 0 9.136-.378 4.21 4.21 0 0 0 7.235 1.189v9.354a7.227 7.227 0 0 0 7.219 7.219h3.75a4.035 4.035 0 0 1 4.031 4.031V99a.47.47 0 0 0 .938 0V64.5a4.036 4.036 0 0 1 4.03-4.031h2.25a.47.47 0 0 0 0-.938h-2.25a4.975 4.975 0 0 0-4.968 4.969v12.107a4.962 4.962 0 0 0-4.031-2.076h-2.532v-27.61a1.031 1.031 0 0 1 1.282-1l9.7 2.425a.28.28 0 0 1 .204.204l1.291 5.165a8.905 8.905 0 0 0 8.651 6.754h.904a4.035 4.035 0 0 1 4.031 4.031V99a.47.47 0 0 0 .938 0V49.5a4.036 4.036 0 0 1 4.03-4.031h10.5a4.035 4.035 0 0 1 4.032 4.031V99a.47.47 0 0 0 .938 0V34.5a4.036 4.036 0 0 1 4.03-4.031h10.501a4.035 4.035 0 0 1 4.031 4.031V99a.468.468 0 1 0 .938 0V34.5a4.979 4.979 0 0 0-4.969-4.969ZM22.998 51c0 .762-.472 1.406-1.031 1.406-.559 0-1.031-.644-1.031-1.406v-2.195c1.219.44 2.062 1.269 2.062 2.195Z" fill="url(#a)"/><path d="M35.467 74.531a4.975 4.975 0 0 0-4.969 4.969v12.107a4.962 4.962 0 0 0-4.031-2.076h-10.5a4.975 4.975 0 0 0-4.969 4.969V99a.47.47 0 0 0 .938 0v-4.5a4.036 4.036 0 0 1 4.03-4.031h10.5a4.035 4.035 0 0 1 4.032 4.031V99a.47.47 0 0 0 .938 0V79.5a4.036 4.036 0 0 1 4.03-4.031.47.47 0 0 0 0-.938Z" fill="url(#b)"/><path d="M104.467 29.531h-10.5a4.975 4.975 0 0 0-4.969 4.969v12.107a4.962 4.962 0 0 0-4.031-2.076h-10.5a4.975 4.975 0 0 0-4.969 4.969v12.107a4.962 4.962 0 0 0-3.638-2.056l-2.78-14.825a4.988 4.988 0 0 0-3.642-3.895l-6.87-1.773a4.03 4.03 0 0 1-2.598-2.1L41.886 20.79a.468.468 0 1 0-.839.418l8.084 16.168a4.968 4.968 0 0 0 3.203 2.589l6.87 1.773a4.048 4.048 0 0 1 2.954 3.16l2.744 14.632h-.339a7.968 7.968 0 0 1-7.741-6.044l-1.291-5.164a1.215 1.215 0 0 0-.887-.887l-9.7-2.425a1.97 1.97 0 0 0-2.446 1.91v27.61h-.281a6.288 6.288 0 0 1-6.282-6.281V44.625a.469.469 0 1 0-.937 0V56.25a3.282 3.282 0 0 1-6.562 0V44.625a.469.469 0 1 0-.938 0v10.49a4.417 4.417 0 0 1-8.091 2.45L15 50.955a.281.281 0 0 1-.046-.196c.2-1.284 1.963-2.29 4.013-2.29.346 0 .69.03 1.031.09V51c0 1.292.883 2.344 1.969 2.344 1.085 0 1.969-1.052 1.969-2.344 0-1.454-1.22-2.672-3-3.195V45c0-2.823-1.268-5.01-2.61-7.325-1.59-2.74-3.39-5.846-3.39-10.675 0-3.547 1.407-5.72 1.42-5.74a.469.469 0 1 0-.78-.52c-.064.097-1.578 2.412-1.578 6.26 0 5.08 1.868 8.303 3.516 11.145 1.333 2.299 2.484 4.284 2.484 6.855v2.604a7.336 7.336 0 0 0-1.031-.073c-2.542 0-4.665 1.326-4.94 3.084a1.21 1.21 0 0 0 .194.861l4.406 6.609a5.35 5.35 0 0 0 9.136-.378 4.21 4.21 0 0 0 7.235 1.189v9.354a7.227 7.227 0 0 0 7.219 7.219h3.75a4.035 4.035 0 0 1 4.031 4.031V99a.47.47 0 0 0 .938 0V64.5a4.036 4.036 0 0 1 4.03-4.031h2.25a.47.47 0 0 0 0-.938h-2.25a4.975 4.975 0 0 0-4.968 4.969v12.107a4.962 4.962 0 0 0-4.031-2.076h-2.532v-27.61a1.031 1.031 0 0 1 1.282-1l9.7 2.425a.28.28 0 0 1 .204.204l1.291 5.165a8.905 8.905 0 0 0 8.651 6.754h.904a4.035 4.035 0 0 1 4.031 4.031V99a.47.47 0 0 0 .938 0V49.5a4.036 4.036 0 0 1 4.03-4.031h10.5a4.035 4.035 0 0 1 4.032 4.031V99a.47.47 0 0 0 .938 0V34.5a4.036 4.036 0 0 1 4.03-4.031h10.501a4.035 4.035 0 0 1 4.031 4.031V99a.468.468 0 1 0 .938 0V34.5a4.979 4.979 0 0 0-4.969-4.969ZM22.998 51c0 .762-.472 1.406-1.031 1.406-.559 0-1.031-.644-1.031-1.406v-2.195c1.219.44 2.062 1.269 2.062 2.195Z" stroke="url(#c)"/><path d="M35.467 74.531a4.975 4.975 0 0 0-4.969 4.969v12.107a4.962 4.962 0 0 0-4.031-2.076h-10.5a4.975 4.975 0 0 0-4.969 4.969V99a.47.47 0 0 0 .938 0v-4.5a4.036 4.036 0 0 1 4.03-4.031h10.5a4.035 4.035 0 0 1 4.032 4.031V99a.47.47 0 0 0 .938 0V79.5a4.036 4.036 0 0 1 4.03-4.031.47.47 0 0 0 0-.938Z" stroke="url(#d)"/></g><defs><linearGradient id="a" x1="60.217" y1="20.527" x2="60.217" y2="99.469" gradientUnits="userSpaceOnUse"><stop stop-color="#93C437"/><stop offset="1" stop-color="#279BE8"/></linearGradient><linearGradient id="b" x1="60.217" y1="20.527" x2="60.217" y2="99.469" gradientUnits="userSpaceOnUse"><stop stop-color="#93C437"/><stop offset="1" stop-color="#279BE8"/></linearGradient><linearGradient id="c" x1="60.217" y1="20.527" x2="60.217" y2="99.469" gradientUnits="userSpaceOnUse"><stop stop-color="#FFBE4F"/><stop offset="1" stop-color="#93C437"/></linearGradient><linearGradient id="d" x1="60.217" y1="20.527" x2="60.217" y2="99.469" gradientUnits="userSpaceOnUse"><stop stop-color="#FFBE4F"/><stop offset="1" stop-color="#93C437"/></linearGradient></defs></svg>
